<?xml version="1.0" standalone="no"?>
<!DOCTYPE svg PUBLIC "-//W3C//DTD SVG 20010904//EN"
 "http://www.w3.org/TR/2001/REC-SVG-20010904/DTD/svg10.dtd">
<svg version="1.0" xmlns="http://www.w3.org/2000/svg"
 width="4419.000000pt" height="6250.000000pt" viewBox="0 0 4419.000000 6250.000000"
 preserveAspectRatio="xMidYMid meet">

<g transform="translate(0.000000,6250.000000) scale(0.100000,-0.100000)"
fill="#000000" stroke="none">
<path d="M9790 33158 c-69 -3 -134 -7 -145 -7 -11 -1 -40 -8 -65 -15 -25 -8
-72 -17 -105 -20 -55 -6 -95 -16 -150 -36 -11 -4 -40 -14 -64 -21 -24 -7 -54
-21 -66 -31 -13 -10 -29 -18 -37 -18 -51 -1 -406 -215 -478 -289 -20 -20 -81
-79 -135 -131 -163 -155 -269 -276 -330 -376 -11 -18 -44 -67 -72 -108 -29
-42 -53 -83 -53 -91 0 -7 -5 -17 -11 -20 -5 -4 -23 -33 -39 -66 -15 -32 -35
-66 -44 -74 -9 -9 -16 -33 -16 -53 0 -24 -8 -47 -25 -67 -15 -19 -24 -25 -25
-15 0 13 -1 13 -10 0 -13 -20 -13 -43 0 -35 21 13 21 -26 1 -65 -12 -22 -21
-46 -21 -53 0 -7 -13 -23 -30 -35 -25 -19 -30 -29 -29 -60 2 -29 3 -31 6 -10
2 14 11 29 18 32 12 4 13 -4 9 -42 -6 -51 -23 -94 -34 -87 -4 2 -7 -22 -6 -54
1 -32 -5 -69 -13 -84 -10 -19 -11 -39 -5 -84 11 -72 6 -803 -5 -803 -14 0 -24
68 -26 190 -2 63 -6 131 -10 151 -4 23 -3 39 4 43 6 4 11 24 11 44 0 39 -14
70 -23 55 -14 -22 -27 -701 -27 -1379 0 -638 2 -733 15 -744 8 -7 15 -9 15 -4
0 5 5 2 10 -6 7 -12 42 -15 184 -17 168 -2 176 -1 187 18 14 27 23 1709 9
1709 -14 0 -13 516 1 581 8 37 8 53 0 58 -15 10 -6 181 14 248 8 29 22 79 30
111 8 31 22 77 31 102 9 25 21 65 27 90 7 25 16 52 22 60 20 31 35 63 35 76 0
8 4 14 8 14 5 0 21 25 36 55 16 30 34 59 41 65 8 6 17 25 20 41 4 16 22 42 41
57 19 15 34 30 34 34 0 5 10 20 23 34 110 131 176 204 208 234 104 95 151 134
210 171 35 23 68 48 72 55 4 8 13 14 18 14 6 0 25 11 42 24 18 13 56 36 85 51
28 15 52 30 52 34 0 3 15 12 33 19 17 8 42 18 54 24 11 6 26 8 31 4 5 -3 15 1
22 9 7 8 17 15 23 15 6 0 18 6 26 13 15 13 53 25 146 49 22 5 54 16 71 25 17
8 72 17 125 19 52 3 110 9 129 14 114 28 346 18 421 -18 24 -12 69 -25 99 -30
30 -5 100 -24 155 -42 55 -18 114 -35 130 -37 17 -3 37 -11 45 -18 8 -7 27
-15 42 -19 15 -3 33 -13 42 -21 8 -8 20 -15 27 -15 7 0 20 -6 28 -14 9 -7 33
-17 55 -20 33 -6 38 -5 33 8 -10 26 9 18 21 -9 6 -13 28 -36 49 -50 21 -14 54
-36 73 -49 20 -13 41 -31 49 -40 7 -9 18 -16 24 -16 11 0 21 -9 85 -71 30 -30
72 -47 72 -30 0 6 5 11 11 11 8 0 8 -4 -1 -14 -9 -12 2 -29 64 -94 80 -83 161
-184 196 -242 11 -19 31 -52 43 -72 12 -20 37 -64 56 -97 19 -34 39 -61 45
-60 25 3 33 -2 45 -28 8 -18 9 -29 1 -37 -7 -7 -10 -5 -10 6 0 9 -6 18 -14 21
-11 5 -11 -2 2 -34 9 -25 20 -38 28 -35 14 5 44 -46 44 -73 -1 -9 -9 2 -20 24
-23 48 -26 28 -5 -41 11 -36 23 -54 45 -66 16 -9 30 -25 30 -36 0 -10 4 -22 9
-27 5 -6 11 -44 14 -85 3 -41 4 -66 1 -55 -3 11 -10 24 -15 30 -5 5 -9 22 -9
37 0 15 -4 28 -10 28 -12 0 -12 2 1 -62 8 -36 19 -60 37 -74 24 -20 26 -28 30
-123 3 -70 1 -101 -7 -101 -7 0 -11 -26 -10 -77 2 -61 3 -69 8 -38 9 54 21
-136 20 -294 -1 -132 -14 -274 -18 -206 -3 36 -4 37 -11 15 -15 -45 -12 -71 8
-68 16 3 17 -17 20 -282 2 -257 -6 -470 -16 -413 -3 21 -4 21 -22 3 -14 -14
-20 -38 -23 -97 -2 -43 -1 -87 4 -98 5 -13 8 -15 9 -5 0 11 3 11 11 -4 9 -14
13 -15 19 -6 16 27 22 -36 15 -168 -4 -83 -11 -129 -16 -121 -6 9 -9 -2 -8
-31 0 -32 3 -39 8 -25 11 28 19 -114 11 -190 -4 -33 -8 -53 -9 -45 -2 8 -9 -7
-16 -35 -17 -66 -17 -59 -19 292 -1 155 -4 285 -7 288 -10 9 -19 -211 -19
-458 0 -236 0 -238 21 -232 15 5 22 2 26 -14 3 -12 12 -21 20 -21 8 0 12 3 10
8 -3 4 69 6 159 4 l164 -3 0 28 c3 746 -4 2292 -11 2388 -17 212 -19 275 -10
237 11 -41 21 -53 21 -24 0 35 -24 102 -36 102 -14 0 -40 69 -49 129 -4 24
-20 73 -36 109 -16 35 -29 68 -29 73 0 18 16 9 32 -18 17 -28 17 -28 18 -5 0
25 -38 87 -47 78 -9 -8 -43 40 -43 61 0 15 2 15 10 3 16 -25 23 -2 10 30 -7
18 -18 29 -25 26 -15 -5 -45 24 -45 44 0 10 3 10 15 0 12 -10 15 -10 15 1 -1
21 -27 52 -39 45 -5 -4 -13 -1 -17 5 -3 6 -2 14 4 18 8 5 8 13 -1 27 -7 12
-23 41 -36 65 -45 83 -121 175 -131 158 -10 -15 -30 -3 -30 17 0 10 5 12 13 8
8 -5 8 -3 -2 9 -7 9 -17 15 -21 12 -16 -10 -42 27 -36 51 3 12 2 25 -3 29 -5
3 -11 -1 -13 -9 -2 -11 -10 -9 -33 9 -16 13 -26 27 -22 31 3 4 13 2 20 -4 8
-7 17 -9 20 -6 5 6 -128 144 -138 144 -3 0 -5 -7 -5 -16 0 -14 -2 -14 -17 1
-12 13 -13 19 -4 25 10 6 10 12 0 29 -8 11 -17 21 -21 21 -5 0 -17 9 -28 20
-11 11 -46 39 -78 63 -32 23 -69 52 -82 65 -25 23 -50 29 -50 12 0 -6 -8 -5
-20 2 -13 9 -16 15 -7 20 7 4 -7 15 -36 27 -26 11 -50 27 -53 36 -4 8 -10 15
-16 15 -5 0 -6 -4 -3 -10 3 -5 -1 -10 -9 -10 -8 0 -21 10 -27 23 -18 33 -41
47 -68 40 -16 -4 -22 -2 -17 5 3 6 -6 13 -23 17 -16 3 -84 28 -151 55 -141 57
-306 102 -435 120 -49 7 -115 16 -145 21 -30 5 -107 12 -170 15 -63 2 -137 6
-165 7 -27 1 -106 -1 -175 -5z m693 -395 c-7 -2 -21 -2 -30 0 -10 3 -4 5 12 5
17 0 24 -2 18 -5z m1154 -260 c4 -10 11 -21 17 -25 8 -5 8 -8 0 -8 -7 0 -19
11 -28 25 -9 14 -12 25 -6 25 6 0 14 -8 17 -17z m-441 -68 c9 -8 11 -15 6 -15
-5 0 -15 7 -22 15 -7 8 -9 15 -6 15 4 0 14 -7 22 -15z m245 -227 c11 -21 11
-22 -4 -9 -10 7 -17 17 -17 22 0 15 9 10 21 -13z m65 -75 c-7 -7 -26 7 -26 19
0 6 6 6 15 -2 9 -7 13 -15 11 -17z m444 -19 c0 -8 -4 -14 -10 -14 -5 0 -10 2
-10 4 0 2 -3 12 -6 20 -5 12 -2 15 10 10 9 -3 16 -12 16 -20z m-370 -68 c0 -6
-14 4 -30 23 -39 44 -39 53 0 16 17 -16 30 -34 30 -39z m410 -9 c0 -5 -4 -5
-10 -2 -5 3 -10 14 -10 23 0 15 2 15 10 2 5 -8 10 -19 10 -23z m-380 -37 c0
-5 -2 -10 -4 -10 -3 0 -8 5 -11 10 -3 6 -1 10 4 10 6 0 11 -4 11 -10z m133
-202 c10 -36 -13 -27 -33 13 l-21 41 25 -18 c13 -11 27 -27 29 -36z m-3956
-1935 c-3 -10 -5 -4 -5 12 0 17 2 24 5 18 2 -7 2 -21 0 -30z m0 -155 c-2 -13
-4 -5 -4 17 -1 22 1 32 4 23 2 -10 2 -28 0 -40z m4150 -205 c-2 -21 -4 -4 -4
37 0 41 2 58 4 38 2 -21 2 -55 0 -75z m-4150 -565 c-3 -7 -5 -2 -5 12 0 14 2
19 5 13 2 -7 2 -19 0 -25z m20 10 c-3 -8 -6 -5 -6 6 -1 11 2 17 5 13 3 -3 4
-12 1 -19z"/>
<path d="M15370 33158 c-85 -5 -164 -12 -175 -17 -11 -5 -47 -14 -80 -21 -33
-7 -73 -16 -89 -21 -16 -5 -40 -9 -52 -9 -13 0 -24 -4 -24 -10 0 -5 -12 -13
-26 -16 -14 -4 -47 -17 -72 -30 -26 -13 -51 -24 -56 -24 -23 0 -174 -77 -239
-121 -39 -27 -77 -49 -84 -49 -6 0 -31 -19 -54 -41 -24 -23 -48 -42 -55 -43
-26 -4 -356 -335 -432 -434 -32 -41 -61 -81 -67 -90 -5 -9 -21 -31 -35 -48
-14 -17 -34 -46 -45 -65 -11 -18 -30 -49 -42 -69 -12 -19 -31 -55 -43 -79 -11
-23 -29 -54 -40 -68 -11 -14 -20 -32 -20 -40 0 -8 -11 -39 -25 -69 -14 -30
-25 -60 -25 -66 0 -6 -16 -51 -35 -99 -19 -49 -35 -104 -35 -123 0 -19 -4 -38
-10 -41 -5 -3 -10 -19 -10 -34 0 -16 -9 -40 -20 -54 -22 -28 -25 -48 -9 -64 7
-7 5 -65 -6 -194 -10 -101 -14 -215 -11 -254 3 -38 10 -122 16 -185 12 -147
13 -140 -6 -140 -12 0 -15 -6 -10 -22 3 -13 6 -34 6 -48 1 -23 2 -23 11 -6 15
24 29 4 29 -41 0 -17 4 -34 9 -37 4 -3 11 -25 14 -48 4 -24 20 -79 37 -123 19
-52 26 -83 20 -89 -14 -14 -12 -48 3 -43 6 2 20 -9 30 -25 24 -39 21 -56 -4
-27 l-21 24 7 -35 c3 -19 15 -42 26 -52 21 -18 26 -58 7 -58 -7 0 6 -17 28
-38 23 -20 43 -44 47 -52 4 -12 6 -11 6 3 1 23 17 22 24 -3 3 -10 2 -18 -2
-17 -12 4 -9 -18 7 -45 11 -18 19 -24 23 -16 9 14 39 -6 39 -26 1 -6 14 -27
30 -46 17 -19 30 -38 30 -42 0 -13 -17 -9 -34 8 -26 26 -18 1 9 -29 30 -31 37
-34 28 -9 -3 9 -2 14 2 9 5 -4 9 -17 10 -29 1 -15 15 -29 40 -43 45 -23 62
-52 24 -40 -22 7 -22 6 6 -28 33 -39 45 -45 45 -22 0 8 14 -1 35 -22 19 -20
35 -44 35 -53 0 -9 7 -25 15 -36 13 -16 14 -16 9 -1 -4 11 -1 17 9 17 22 0 38
-25 30 -45 -5 -15 -3 -17 12 -12 24 10 47 -11 39 -35 -4 -14 8 -32 47 -69 28
-27 58 -49 65 -49 7 0 17 -6 21 -12 4 -7 17 -20 27 -28 18 -14 19 -13 13 3 -8
21 6 22 23 2 10 -12 10 -15 0 -15 -7 0 3 -13 21 -30 19 -16 40 -30 46 -30 7 0
18 -9 25 -20 13 -21 38 -27 38 -10 0 6 -4 10 -10 10 -5 0 -10 5 -10 10 0 15
14 12 36 -7 11 -10 36 -27 57 -37 26 -14 34 -22 25 -28 -9 -5 -6 -8 9 -8 12 0
27 -9 33 -20 8 -14 17 -18 38 -14 22 4 33 -2 60 -30 30 -32 73 -51 57 -26 -3
6 0 10 7 10 19 0 69 -35 62 -43 -4 -4 9 -13 28 -22 20 -8 43 -22 53 -31 9 -10
36 -18 63 -19 26 -2 67 -6 92 -9 32 -4 39 -4 25 3 -34 16 36 13 84 -4 23 -8
101 -19 174 -25 72 -6 158 -18 189 -26 42 -11 63 -12 77 -5 14 8 31 7 63 -5
37 -13 83 -14 328 -8 341 10 400 10 463 -1 33 -5 56 -4 72 5 15 8 36 10 57 5
18 -4 81 -9 140 -12 95 -4 107 -2 102 11 -4 11 0 16 10 16 10 0 16 -7 14 -16
-3 -13 11 -16 77 -18 95 -3 110 1 94 20 -9 11 -6 14 21 14 25 0 31 -3 26 -16
-6 -15 26 -16 189 -3 11 1 44 -2 73 -6 48 -7 52 -6 46 10 -7 17 -2 18 55 12
34 -3 69 -11 77 -18 11 -9 39 -12 79 -11 34 1 73 -2 87 -7 33 -12 128 7 128
26 0 10 9 13 26 11 l26 -3 -2 160 c0 90 -5 164 -11 171 -8 10 -291 13 -1252
16 l-1242 4 -100 23 c-113 26 -188 48 -290 84 -93 33 -221 92 -229 106 -4 6
-26 20 -49 31 -45 21 -61 32 -151 95 -32 22 -66 45 -77 51 -11 6 -27 21 -35
33 -8 11 -21 21 -29 21 -7 0 -16 8 -19 18 -4 11 -18 25 -32 32 -13 8 -22 20
-20 27 3 7 2 12 -2 11 -12 -4 -52 22 -52 33 0 6 5 7 11 3 7 -4 10 -1 7 7 -2 7
-18 17 -36 21 -30 8 -49 24 -39 34 2 3 12 -2 21 -11 14 -14 16 -14 16 -1 0 20
-48 56 -65 49 -10 -3 -19 5 -25 23 -6 15 -20 34 -31 41 -14 11 -17 21 -13 40
6 22 4 25 -11 20 -17 -7 -33 8 -82 80 -23 35 -31 69 -13 58 6 -3 10 -3 10 2 0
16 -15 31 -35 34 -24 5 -65 64 -65 94 0 13 -6 28 -13 34 -8 6 -20 30 -27 53
-8 24 -20 51 -28 60 -8 10 -15 39 -16 65 0 27 -3 50 -6 53 -12 11 -44 88 -52
125 -5 22 -13 72 -18 110 -5 39 -12 87 -16 108 -7 44 7 67 42 67 12 0 29 -9
37 -20 7 -10 33 -24 58 -29 28 -7 420 -11 1109 -11 999 0 1067 -1 1090 -17 20
-15 45 -18 137 -17 117 1 157 13 169 52 3 9 12 31 19 47 23 49 35 118 31 184
-3 35 0 59 5 55 5 -3 9 -16 9 -28 0 -13 7 -29 15 -36 12 -10 15 -9 15 5 0 26
-31 73 -51 78 -10 3 -28 21 -40 41 -11 20 -25 36 -30 36 -5 0 -17 8 -28 19
-24 24 -105 51 -152 51 -21 0 -50 5 -64 12 -22 10 -31 7 -78 -25 l-53 -37
-1040 4 c-571 2 -1051 5 -1065 7 -19 1 -38 -9 -69 -40 -24 -23 -48 -40 -54
-38 -16 5 -19 56 -7 98 6 21 16 72 21 116 9 73 33 164 67 258 9 22 22 57 30
79 48 131 177 353 221 381 17 11 30 25 28 30 -4 13 41 74 74 100 14 11 57 51
95 90 136 135 326 283 435 337 14 7 39 23 56 35 42 31 143 81 179 89 17 3 37
12 45 19 8 7 35 19 60 25 25 7 59 18 75 25 48 20 99 34 115 32 17 -2 87 8 200
27 100 18 464 16 481 -1 17 -17 54 -16 121 0 34 8 108 12 208 11 240 -3 237
-3 220 -14 -11 -7 -7 -10 18 -10 18 0 31 4 28 9 -12 18 50 18 106 0 42 -14 63
-17 76 -10 15 9 14 10 -7 11 -13 0 -21 3 -18 6 9 9 533 17 575 9 18 -3 30 -10
27 -14 -3 -5 13 -11 36 -13 22 -2 43 0 46 5 3 5 18 7 34 5 16 -3 29 -1 29 3 0
13 41 21 76 14 19 -3 32 -10 29 -15 -9 -14 31 -22 72 -14 31 6 34 8 18 14 -46
17 184 25 244 9 17 -5 19 11 24 204 2 81 0 150 -5 153 -4 3 -8 -7 -8 -22 l0
-26 -17 21 -18 22 -1180 2 c-649 1 -1250 -1 -1335 -5z m2547 -130 c-2 -13 -4
-3 -4 22 0 25 2 35 4 23 2 -13 2 -33 0 -45z m0 -155 c-2 -21 -4 -4 -4 37 0 41
2 58 4 38 2 -21 2 -55 0 -75z m-4242 -2943 c16 -30 15 -30 -5 -18 -11 7 -20
21 -20 30 0 26 7 22 25 -12z m547 -697 c29 -35 33 -46 9 -34 -22 12 -47 51
-33 51 5 0 16 -8 24 -17z m68 -65 c0 -6 -6 -5 -15 2 -8 7 -15 14 -15 16 0 2 7
1 15 -2 8 -4 15 -11 15 -16z m160 -118 c0 -5 -2 -10 -4 -10 -3 0 -8 5 -11 10
-3 6 -1 10 4 10 6 0 11 -4 11 -10z m502 -244 c18 -8 42 -17 52 -21 10 -3 16
-8 14 -11 -7 -7 -107 26 -114 37 -8 13 11 11 48 -5z"/>
<path d="M20965 33160 c-16 -4 -53 -8 -82 -9 -28 0 -53 -6 -55 -12 -2 -6 -26
-12 -53 -14 -64 -4 -153 -23 -185 -40 -14 -8 -47 -22 -75 -31 -27 -10 -61 -24
-75 -31 -14 -7 -30 -13 -36 -13 -25 0 -334 -185 -334 -199 0 -5 -13 -14 -29
-19 -16 -6 -50 -30 -76 -54 -92 -85 -241 -235 -295 -298 -30 -35 -66 -76 -80
-91 -88 -98 -154 -191 -216 -309 -16 -30 -33 -59 -39 -65 -5 -6 -19 -29 -29
-51 -10 -21 -30 -60 -43 -86 -12 -27 -23 -54 -23 -61 0 -7 -14 -41 -32 -77
-22 -47 -33 -60 -37 -47 -5 12 -9 8 -17 -19 -9 -29 -9 -34 2 -30 16 6 19 -34
5 -62 -6 -9 -12 -29 -16 -44 -3 -16 -12 -28 -19 -28 -8 0 -16 -9 -19 -20 -3
-13 0 -20 9 -20 12 0 14 -13 8 -77 -4 -43 -13 -95 -20 -117 -10 -28 -14 -110
-16 -300 -1 -143 -3 -244 -5 -223 -2 20 -8 37 -14 37 -18 0 -8 -64 17 -107 14
-25 30 -70 34 -101 5 -31 12 -75 16 -96 8 -45 -9 -43 -28 2 -11 26 -12 26 -15
5 -3 -12 1 -31 6 -42 6 -11 11 -31 11 -45 0 -14 5 -26 10 -26 6 0 10 12 10 27
0 26 1 25 20 -11 10 -21 24 -64 31 -95 6 -31 22 -77 35 -103 13 -26 24 -53 24
-61 0 -7 11 -35 24 -63 14 -27 32 -65 40 -84 9 -19 32 -62 51 -95 19 -33 39
-70 44 -82 5 -12 33 -54 61 -93 33 -46 49 -78 45 -88 -3 -9 -3 -13 1 -9 8 8
54 -31 54 -45 0 -5 -10 -6 -22 -2 -21 6 -21 5 5 -27 39 -49 70 -79 76 -74 2 3
-8 19 -24 35 -16 16 -25 33 -21 37 4 4 32 -22 64 -57 110 -125 313 -310 340
-310 5 0 12 -6 15 -14 5 -13 123 -96 137 -96 4 0 15 -9 24 -19 10 -11 29 -22
43 -26 13 -3 37 -17 51 -30 15 -14 30 -25 35 -25 4 0 5 -5 1 -11 -7 -11 12
-29 31 -29 6 0 4 4 -4 9 -8 5 -9 11 -3 15 12 7 72 -13 72 -25 0 -5 7 -9 15 -9
17 0 85 -30 101 -45 6 -6 9 -16 6 -23 -2 -6 8 -16 23 -22 15 -6 29 -19 32 -29
7 -26 34 -31 56 -9 12 13 13 18 4 18 -18 0 -75 28 -82 41 -11 17 41 9 91 -14
27 -13 78 -29 114 -36 36 -7 88 -19 115 -26 48 -13 202 -30 369 -40 43 -3 81
-7 83 -9 7 -7 -75 -18 -94 -13 -10 3 -47 2 -83 -2 l-65 -7 73 -13 c70 -12 210
-10 233 5 6 3 4 11 -7 18 -20 15 8 19 258 36 83 6 162 17 182 25 20 8 50 15
68 15 18 0 71 14 118 31 47 16 105 36 130 44 100 30 253 100 352 161 154 95
187 117 192 129 3 8 19 21 35 30 67 34 330 296 354 352 6 16 36 56 65 89 55
63 61 72 133 210 25 49 51 98 57 109 25 45 72 151 72 163 0 7 11 34 24 60 13
27 28 66 32 88 3 21 12 50 19 64 7 14 16 52 20 85 11 96 33 218 44 248 7 17
11 127 11 283 0 168 3 253 10 249 6 -4 10 5 10 19 0 14 -4 26 -8 26 -11 0 -30
56 -37 110 -3 25 -8 60 -11 78 -5 36 12 45 19 10 3 -13 3 -2 1 25 -4 55 -13
76 -25 56 -5 -9 -10 -4 -14 17 -4 16 -13 43 -21 61 -8 17 -14 36 -14 42 0 15
17 14 23 -1 3 -7 6 -2 6 12 1 14 -6 38 -14 54 -8 15 -15 38 -15 50 0 11 -9 32
-20 46 -11 14 -20 30 -20 37 0 7 -9 17 -20 23 -26 14 -54 67 -40 75 6 4 -3 19
-21 36 -18 16 -29 33 -25 37 4 4 14 -2 22 -12 12 -18 14 -18 14 -3 0 26 -27
87 -39 87 -11 0 -41 56 -41 75 0 7 -6 15 -14 18 -8 3 -20 17 -28 30 -26 47
-66 102 -92 126 -14 14 -26 30 -26 36 0 6 -11 22 -25 35 -14 13 -25 29 -25 35
0 7 -11 17 -25 23 -14 6 -25 16 -25 22 0 23 -284 290 -308 290 -6 0 -19 11
-29 24 -17 21 -72 56 -88 56 -3 0 6 -11 20 -25 27 -28 33 -41 13 -29 -32 18
-48 39 -43 55 5 14 -4 23 -38 38 -24 11 -50 27 -57 36 -7 8 -18 15 -26 15 -7
0 -29 9 -48 21 -20 12 -36 16 -36 11 0 -6 -10 -8 -22 -4 -29 7 -76 42 -57 42
26 1 -32 39 -69 46 -20 4 -44 12 -52 18 -28 22 -70 39 -77 32 -4 -4 -1 -11 7
-16 27 -17 -16 -12 -54 7 -32 15 -34 18 -18 29 16 12 15 13 -5 14 -12 0 -34 5
-48 12 -28 13 -48 3 -25 -13 11 -7 1 -8 -30 -3 -25 3 -50 10 -56 15 -12 10
-33 13 -329 47 -166 20 -495 27 -550 12z m1545 -335 c14 -16 10 -18 -14 -9 -9
3 -16 10 -16 15 0 14 16 11 30 -6z m-1229 -24 c-19 -12 51 -26 76 -16 17 7 16
8 -2 15 -31 13 137 12 174 -1 17 -6 36 -20 42 -30 8 -15 21 -19 68 -19 40 0
63 -5 71 -15 8 -9 30 -15 58 -15 62 0 45 14 -48 39 -68 18 -71 20 -35 21 22 0
66 -8 98 -17 46 -14 57 -22 53 -35 -3 -14 6 -20 37 -28 60 -16 127 -42 133
-51 3 -5 15 -9 26 -9 11 0 42 -13 67 -28 25 -16 57 -31 69 -35 20 -5 23 -2 19
13 -4 14 -1 17 12 13 27 -10 42 -26 37 -38 -2 -7 12 -21 32 -31 20 -11 50 -31
67 -46 16 -16 35 -28 42 -28 7 0 16 -6 20 -14 4 -8 31 -30 58 -49 58 -39 223
-203 298 -294 28 -35 54 -63 59 -63 4 0 8 -6 8 -14 0 -7 25 -48 55 -90 30 -42
55 -80 55 -85 0 -18 64 -128 91 -156 19 -21 29 -41 29 -63 0 -36 95 -329 106
-324 11 6 24 -21 24 -53 0 -17 6 -37 13 -43 9 -10 12 -79 14 -264 2 -219 -1
-263 -18 -332 -10 -45 -19 -94 -19 -110 0 -33 -13 -80 -40 -141 -9 -22 -23
-56 -30 -75 -7 -19 -21 -54 -31 -77 -11 -24 -19 -46 -19 -50 0 -5 -7 -21 -16
-38 -9 -16 -29 -55 -45 -85 -32 -61 -39 -73 -86 -145 -82 -126 -129 -188 -208
-269 -50 -51 -210 -186 -250 -211 -16 -10 -39 -27 -50 -36 -22 -20 -154 -93
-199 -110 -15 -7 -48 -23 -73 -36 -54 -29 -217 -93 -236 -93 -7 0 -21 -6 -32
-13 -22 -14 -83 -34 -130 -41 -16 -2 -64 -14 -105 -27 -69 -20 -96 -22 -345
-23 l-270 0 -135 33 c-74 18 -160 44 -191 57 -31 13 -62 24 -69 24 -7 0 -31 9
-54 20 -23 10 -57 26 -76 35 -19 8 -60 31 -90 50 -30 19 -65 39 -77 44 -32 15
-125 77 -148 101 -12 11 -24 20 -28 20 -7 0 -36 25 -150 130 -66 61 -197 213
-197 229 0 5 -6 14 -14 18 -21 11 -96 118 -96 136 0 8 -9 22 -19 31 -11 10
-23 31 -26 46 -3 16 -12 33 -19 39 -11 9 -21 30 -77 156 -10 22 -23 60 -29 85
-7 25 -19 60 -27 78 -8 18 -19 58 -25 90 -6 31 -19 96 -29 143 -15 70 -19 128
-19 310 0 126 5 239 10 259 6 19 18 76 26 125 14 81 65 252 99 330 29 65 57
123 90 180 18 33 38 70 44 83 36 77 306 364 451 479 36 29 75 61 87 72 12 10
31 22 43 26 11 3 20 10 20 15 0 5 10 12 22 16 12 3 33 17 47 30 14 13 35 27
46 30 11 4 36 20 56 35 20 16 42 29 48 29 13 0 49 20 68 37 7 6 27 14 45 18
18 4 40 13 48 20 8 6 38 17 65 24 109 27 131 33 160 46 63 28 437 62 396 36z
m679 -96 c22 -13 23 -14 5 -14 -11 0 -29 6 -39 14 -26 20 0 20 34 0z m107 -41
c-3 -3 -12 -4 -19 -1 -8 3 -5 6 6 6 11 1 17 -2 13 -5z m738 -82 c-8 -8 -35 20
-35 37 1 12 5 11 21 -8 11 -13 17 -26 14 -29z m-509 -37 c13 -13 13 -15 1 -15
-8 0 -20 7 -27 15 -9 11 -10 15 -1 15 7 0 19 -7 27 -15z m558 0 c3 -8 1 -15
-4 -15 -6 0 -10 7 -10 15 0 8 2 15 4 15 2 0 6 -7 10 -15z m-314 -175 c0 -14
-28 -1 -34 16 -4 12 -2 12 14 4 11 -6 20 -15 20 -20z m50 -40 c11 -11 16 -20
12 -20 -5 0 -17 9 -27 20 -10 11 -15 20 -12 20 4 0 16 -9 27 -20z m551 -113
c12 -22 12 -22 -10 -3 -11 11 -21 23 -21 28 0 14 19 -1 31 -25z m-386 -57 c3
-5 1 -10 -4 -10 -6 0 -11 5 -11 10 0 6 2 10 4 10 3 0 8 -4 11 -10z m106 -132
c27 -33 23 -45 -6 -18 -24 22 -32 40 -19 40 3 0 14 -10 25 -22z m103 -174 c3
-8 2 -12 -4 -9 -6 3 -10 10 -10 16 0 14 7 11 14 -7z m76 -141 c0 -14 -5 -11
-20 12 -26 39 -26 65 0 32 11 -14 20 -33 20 -44z m366 22 c3 -19 10 -35 14
-35 8 0 22 -42 16 -47 -5 -5 -56 94 -56 107 0 25 20 6 26 -25z m-316 -138 c0
-20 0 -20 -15 -1 -20 27 -20 51 0 34 8 -7 15 -22 15 -33z m59 -168 c8 -26 9
-45 3 -51 -6 -6 -14 8 -21 36 -13 54 -13 56 -3 56 5 0 14 -19 21 -41z"/>
<path d="M23170 31060 c0 -11 5 -20 10 -20 6 0 10 9 10 20 0 11 -4 20 -10 20
-5 0 -10 -9 -10 -20z"/>
<path d="M23183 30935 c0 -27 2 -38 4 -22 2 15 2 37 0 50 -2 12 -4 0 -4 -28z"/>
<path d="M19481 30474 c0 -11 3 -14 6 -6 3 7 2 16 -1 19 -3 4 -6 -2 -5 -13z"/>
<path d="M19501 30414 c0 -11 3 -14 6 -6 3 7 2 16 -1 19 -3 4 -6 -2 -5 -13z"/>
<path d="M19640 30045 c0 -8 4 -15 10 -15 5 0 7 7 4 15 -4 8 -8 15 -10 15 -2
0 -4 -7 -4 -15z"/>
<path d="M24684 33161 c-2 -2 -4 -33 -4 -67 0 -36 -5 -66 -11 -70 -12 -7 -5
-186 8 -219 3 -9 18 -15 37 -15 23 0 27 3 16 10 -25 16 -3 22 35 10 20 -7 49
-9 63 -6 15 4 146 9 292 12 267 5 375 0 335 -17 -15 -6 -11 -8 20 -8 22 -1 56
-4 76 -7 29 -5 40 -2 57 16 18 19 26 21 59 14 30 -6 33 -9 15 -12 -41 -7 -12
-22 41 -21 52 0 116 17 73 18 -11 1 -17 4 -13 7 3 3 54 8 114 11 118 5 186 -2
162 -18 -9 -6 7 -8 46 -8 46 1 53 3 30 8 -28 7 -26 8 17 12 26 2 168 4 315 4
l268 0 0 -465 c0 -256 2 -483 4 -505 l3 -40 9 35 c5 19 7 186 5 370 -3 184 -1
339 4 345 4 5 10 21 13 35 6 33 11 -1605 8 -2871 -1 -864 0 -1008 13 -1018 12
-10 171 -17 287 -12 l25 1 3 1928 c3 2201 2 2084 18 2089 7 3 13 -9 16 -29 2
-19 4 -7 5 29 2 52 -1 61 -13 57 -19 -8 -19 1 1 31 15 24 21 25 113 25 65 0
103 -4 116 -14 27 -18 112 -27 155 -17 33 8 33 9 7 10 -18 1 -26 5 -21 12 8
14 152 4 190 -13 20 -9 30 -9 47 2 18 12 102 15 477 15 451 1 829 -8 640 -15
l-85 -3 80 -6 c44 -3 127 -3 185 0 l105 6 -84 1 c-46 1 -82 4 -80 6 2 3 51 7
109 10 57 3 108 10 112 14 14 14 5 107 -9 105 -17 -4 -17 31 -1 57 10 16 9 25
-5 49 -16 27 -15 61 3 61 12 0 19 36 9 51 -6 10 -420 13 -2259 13 -1238 1
-2254 -1 -2256 -3z m23 -93 c-3 -7 -5 -2 -5 12 0 14 2 19 5 13 2 -7 2 -19 0
-25z"/>
<path d="M30327 33118 c-12 -92 -8 -165 7 -171 15 -6 10 -57 -5 -57 -5 0 -9
-30 -8 -67 0 -45 3 -61 8 -48 17 43 21 -366 18 -2154 -1 -1473 -5 -1855 -14
-1858 -17 -6 -16 -21 2 -39 20 -20 19 -32 -2 -37 -10 -3 64 -5 164 -6 220 -1
208 -10 199 143 -4 55 -6 116 -6 134 1 58 0 154 -4 357 -6 266 -6 272 -4 560
0 138 -3 374 -7 527 -8 282 -5 328 19 328 8 0 16 7 20 15 5 13 222 15 1876 15
1706 0 1871 -1 1877 -16 3 -9 0 -19 -7 -24 -9 -6 -12 -143 -11 -636 0 -346 0
-768 -1 -939 -2 -170 -2 -342 -3 -382 0 -71 16 -113 33 -87 5 8 55 11 159 10
83 0 154 2 157 5 3 3 6 848 6 1877 0 1257 4 1880 10 1898 8 19 8 30 0 38 -12
12 -13 53 -2 60 5 3 8 101 7 218 -1 125 2 218 8 226 7 8 6 21 -2 38 -6 14 -11
37 -11 53 0 59 -9 62 -189 59 l-165 -3 -7 -29 c-5 -16 -7 -466 -6 -1001 2
-800 4 -975 16 -988 11 -15 10 -18 -15 -28 -42 -16 -3738 -19 -3754 -3 -8 8
-12 67 -11 180 0 485 1 525 11 519 6 -4 10 18 10 59 0 37 -4 66 -10 66 -6 0
-10 45 -10 115 0 70 4 115 10 115 6 0 10 29 9 68 -1 49 -3 60 -9 42 -5 -15 -8
31 -9 118 -1 88 3 142 9 142 6 0 10 40 10 99 0 56 -4 103 -10 106 -14 9 -12
63 2 67 9 3 12 53 13 183 l0 179 -186 3 -186 4 -6 -53z m10 -305 c-3 -10 -5
-4 -5 12 0 17 2 24 5 18 2 -7 2 -21 0 -30z m350 -175 c-3 -7 -5 -2 -5 12 0 14
2 19 5 13 2 -7 2 -19 0 -25z"/>
<path d="M21858 33113 c6 -2 18 -2 25 0 6 3 1 5 -13 5 -14 0 -19 -2 -12 -5z"/>
<path d="M26213 32793 c9 -2 25 -2 35 0 9 3 1 5 -18 5 -19 0 -27 -2 -17 -5z"/>
<path d="M27808 32793 c12 -2 32 -2 45 0 12 2 2 4 -23 4 -25 0 -35 -2 -22 -4z"/>
<path d="M26677 32759 c-16 -10 -16 -12 5 -29 27 -22 38 -17 38 16 0 26 -14
30 -43 13z"/>
<path d="M27143 32590 c0 -30 2 -43 4 -27 2 15 2 39 0 55 -2 15 -4 2 -4 -28z"/>
<path d="M30692 32330 c0 -19 2 -27 5 -17 2 9 2 25 0 35 -3 9 -5 1 -5 -18z"/>
<path d="M19426 32194 c-5 -14 -4 -15 9 -4 17 14 19 20 6 20 -5 0 -12 -7 -15
-16z"/>
<path d="M13558 31748 c-20 -20 -23 -38 -8 -38 11 0 33 38 28 48 -2 5 -11 0
-20 -10z"/>
<path d="M19187 31744 c-4 -4 -7 -14 -7 -23 0 -11 3 -12 11 -4 6 6 10 16 7 23
-2 6 -7 8 -11 4z"/>
<path d="M13541 31684 c0 -11 3 -14 6 -6 3 7 2 16 -1 19 -3 4 -6 -2 -5 -13z"/>
<path d="M12191 31620 c0 -19 6 -48 14 -65 18 -39 18 -13 0 50 -13 47 -14 48
-14 15z"/>
<path d="M7875 31599 c-11 -16 -1 -19 13 -3 7 8 8 14 3 14 -5 0 -13 -5 -16
-11z"/>
<path d="M13497 31573 c-4 -3 -7 -20 -7 -37 l1 -31 14 34 c8 18 15 35 15 37 0
6 -16 5 -23 -3z"/>
<path d="M26738 31468 c-2 -19 -1 -45 3 -59 4 -19 7 -15 11 21 3 25 2 51 -2
59 -5 9 -9 1 -12 -21z"/>
<path d="M26741 31314 c0 -11 3 -14 6 -6 3 7 2 16 -1 19 -3 4 -6 -2 -5 -13z"/>
<path d="M12272 31260 c0 -14 2 -19 5 -12 2 6 2 18 0 25 -3 6 -5 1 -5 -13z"/>
<path d="M26742 31210 c0 -14 2 -19 5 -12 2 6 2 18 0 25 -3 6 -5 1 -5 -13z"/>
<path d="M13426 31182 c-4 -13 -5 -26 -2 -29 10 -11 18 4 14 29 l-4 23 -8 -23z"/>
<path d="M19056 31139 c-3 -34 -5 -105 -4 -158 l2 -96 7 100 c5 55 11 126 15
158 3 34 2 57 -4 57 -5 0 -12 -28 -16 -61z"/>
<path d="M26742 31100 c0 -19 2 -27 5 -17 2 9 2 25 0 35 -3 9 -5 1 -5 -18z"/>
<path d="M7792 30945 c0 -16 2 -22 5 -12 2 9 2 23 0 30 -3 6 -5 -1 -5 -18z"/>
<path d="M11922 30830 c0 -14 2 -19 5 -12 2 6 2 18 0 25 -3 6 -5 1 -5 -13z"/>
<path d="M34383 30702 c-28 -4 -28 -7 -3 -39 11 -14 20 -35 20 -47 1 -31 16
-1 23 46 6 39 -2 47 -40 40z"/>
<path d="M16040 30655 c-23 -12 -23 -13 14 -25 45 -14 50 -12 27 16 -15 19
-20 20 -41 9z"/>
<path d="M8161 30574 c0 -11 3 -14 6 -6 3 7 2 16 -1 19 -3 4 -6 -2 -5 -13z"/>
<path d="M19083 30515 c0 -22 2 -30 4 -17 2 12 2 30 0 40 -3 9 -5 -1 -4 -23z"/>
<path d="M26742 30415 c0 -16 2 -22 5 -12 2 9 2 23 0 30 -3 6 -5 -1 -5 -18z"/>
<path d="M13481 30375 c-1 -39 17 -102 31 -111 12 -8 9 8 -15 91 -13 42 -15
45 -16 20z"/>
<path d="M19136 30275 c3 -22 9 -42 13 -45 5 -3 11 -12 14 -20 5 -13 5 -13 6
0 0 8 -9 35 -20 60 l-20 45 7 -40z"/>
<path d="M19097 30293 c-7 -11 -4 -35 10 -86 2 -9 9 -15 14 -12 12 8 12 48 0
61 -5 5 -11 18 -13 29 -2 14 -6 16 -11 8z"/>
<path d="M13921 30225 c0 -5 6 -19 14 -29 8 -11 15 -15 15 -10 0 6 -7 19 -15
30 -8 10 -14 15 -14 9z"/>
<path d="M13530 30172 c0 -18 18 -42 31 -42 5 0 3 14 -2 30 -12 33 -29 40 -29
12z"/>
<path d="M19130 30151 c0 -11 5 -23 10 -26 6 -3 10 3 10 14 0 11 -4 23 -10 26
-5 3 -10 -3 -10 -14z"/>
<path d="M19190 30114 c0 -12 7 -27 15 -34 19 -16 19 -3 0 30 -13 24 -14 24
-15 4z"/>
<path d="M19150 30090 c0 -12 27 -78 60 -146 53 -111 79 -156 178 -309 51 -79
177 -223 186 -214 5 5 -49 81 -105 149 -17 19 -39 46 -50 58 -10 13 -19 29
-19 36 0 7 -16 29 -35 50 -19 21 -35 47 -35 58 0 10 -6 21 -14 24 -8 3 -17 21
-20 40 -4 19 -10 34 -15 34 -8 0 -61 108 -61 125 0 6 -12 21 -25 34 -16 14
-23 30 -20 41 3 9 -1 23 -10 30 -13 10 -15 9 -15 -10z"/>
<path d="M19250 29963 c0 -5 7 -17 15 -27 15 -20 20 -10 9 18 -6 16 -24 22
-24 9z"/>
<path d="M19290 29889 c0 -9 9 -26 20 -39 26 -29 26 -20 0 22 -11 19 -20 26
-20 17z"/>
<path d="M14100 29882 c0 -5 9 -17 20 -27 22 -20 26 -14 10 16 -11 19 -30 26
-30 11z"/>
<path d="M26742 29820 c0 -14 2 -19 5 -12 2 6 2 18 0 25 -3 6 -5 1 -5 -13z"/>
<path d="M19370 29755 c0 -8 4 -15 10 -15 5 0 7 7 4 15 -4 8 -8 15 -10 15 -2
0 -4 -7 -4 -15z"/>
<path d="M14420 29512 c0 -5 7 -13 16 -16 10 -4 14 -1 12 6 -5 15 -28 23 -28
10z"/>
<path d="M19602 29381 c10 -30 128 -137 128 -117 0 16 -14 36 -25 36 -8 0 -30
20 -51 45 -33 41 -61 60 -52 36z"/>
<path d="M19766 29275 c16 -24 44 -45 59 -45 4 0 -8 16 -26 35 -39 41 -57 46
-33 10z"/>
<path d="M19740 29241 c0 -5 20 -25 45 -45 53 -44 59 -34 12 18 -32 34 -57 46
-57 27z"/>
<path d="M19865 29130 c20 -22 31 -20 22 5 -4 8 -14 15 -23 15 -16 0 -16 -2 1
-20z"/>
<path d="M19960 29066 c0 -2 7 -7 16 -10 8 -3 12 -2 9 4 -6 10 -25 14 -25 6z"/>
<path d="M20020 29066 c0 -2 7 -7 16 -10 8 -3 12 -2 9 4 -6 10 -25 14 -25 6z"/>
<path d="M20025 29020 c3 -5 8 -10 11 -10 2 0 4 5 4 10 0 6 -5 10 -11 10 -5 0
-7 -4 -4 -10z"/>
<path d="M14675 28890 c3 -5 10 -10 16 -10 5 0 9 5 9 10 0 6 -7 10 -16 10 -8
0 -12 -4 -9 -10z"/>
<path d="M20398 28813 c7 -3 16 -2 19 1 4 3 -2 6 -13 5 -11 0 -14 -3 -6 -6z"/>
<path d="M26735 28760 c-4 -6 -3 -16 3 -22 6 -6 12 -6 17 2 4 6 3 16 -3 22 -6
6 -12 6 -17 -2z"/>
<path d="M20688 28743 c7 -3 16 -2 19 1 4 3 -2 6 -13 5 -11 0 -14 -3 -6 -6z"/>
<path d="M20867 28703 c-15 -14 -6 -23 22 -23 37 0 49 16 18 24 -28 7 -32 7
-40 -1z"/>
<path d="M20970 28680 c0 -5 5 -10 10 -10 6 0 10 5 10 10 0 6 -4 10 -10 10 -5
0 -10 -4 -10 -10z"/>
</g>
</svg>
